<svg width="427" height="60" viewBox="0 0 427 60" fill="none" xmlns="http://www.w3.org/2000/svg">
<path d="M12.21 1.64999H0V58.88H32.2V48.6H12.21V1.64999Z" fill="white"/>
<path d="M51.53 34.49H69.27V24.48H51.53V11.98H72.45V1.66H39.31V58.89H72.53V48.62H51.53V34.49Z" fill="white"/>
<path d="M193.62 58.88H205.79L190.07 1.66H178.13L162.69 58.24L162.52 58.85H174.58L176.58 50.47H191.58L193.62 58.88ZM179.12 40.04L184.12 19.42L189.12 40.04H179.12Z" fill="white"/>
<path d="M160.69 1.66H124.37V12.09H136.33V58.9H148.69V12.09H160.69V1.66Z" fill="white"/>
<path d="M118.6 35.94C117.952 34.1702 116.956 32.5482 115.67 31.17C114.344 29.7688 112.792 28.5993 111.08 27.71C109.216 26.7368 107.268 25.9335 105.26 25.31L98.48 23.09C97.58 22.78 96.61 22.45 95.61 22.09C94.8998 21.8519 94.2266 21.5153 93.61 21.09C93.0925 20.7325 92.6647 20.2602 92.36 19.71C92.0147 18.9839 91.8566 18.1829 91.9 17.38C91.9016 16.771 92.0382 16.1699 92.3 15.62C92.5883 15.0796 92.991 14.6087 93.48 14.24C94.1878 13.7102 94.9881 13.3168 95.84 13.08C97.0595 12.736 98.3232 12.5742 99.59 12.6C100.414 12.6022 101.235 12.7132 102.03 12.93C102.808 13.1341 103.553 13.4508 104.24 13.87C104.89 14.2938 105.45 14.8407 105.89 15.48C106.393 16.3948 106.602 17.4421 106.49 18.48V21H118.28V18.41C118.309 16.0855 117.891 13.7771 117.05 11.61L116.99 11.48C116.247 9.99392 115.316 8.6093 114.22 7.36C113.1 6.08076 111.796 4.97532 110.35 4.08C108.844 3.1543 107.215 2.44724 105.51 1.98C103.645 1.4798 101.721 1.23093 99.79 1.24C97.0115 1.20489 94.2456 1.62027 91.6 2.47C89.3004 3.22042 87.1678 4.40896 85.32 5.97C83.6073 7.44338 82.2413 9.27712 81.32 11.34C80.4123 13.3932 79.9489 15.6151 79.96 17.86C79.9257 19.8805 80.2334 21.8922 80.87 23.81C81.4628 25.526 82.3756 27.1141 83.56 28.49C84.7251 29.8261 86.108 30.9554 87.65 31.83C89.2334 32.7188 90.9103 33.4298 92.65 33.95L100 36.04C100.93 36.34 101.9 36.69 102.9 37.09C103.749 37.4254 104.549 37.8727 105.28 38.42C105.908 38.8892 106.438 39.477 106.84 40.15C107.201 40.8252 107.374 41.5851 107.34 42.35C107.358 43.124 107.204 43.8924 106.89 44.6C106.596 45.2268 106.157 45.7751 105.61 46.2C104.925 46.7177 104.148 47.1011 103.32 47.33C102.207 47.6374 101.055 47.7856 99.9 47.77C98.6628 47.7832 97.4291 47.6353 96.23 47.33C95.3169 47.1006 94.4529 46.7076 93.68 46.17C93.0685 45.7307 92.5713 45.1511 92.23 44.48C92.11 44.24 91.71 43.24 91.71 40.32V38.49H79.94V40.32C79.955 42.5107 80.2439 44.691 80.8 46.81V46.89C81.2861 48.4544 81.9576 49.955 82.8 51.36C83.7521 52.9467 84.9896 54.3436 86.45 55.48C88.119 56.7403 89.998 57.6951 92 58.3C94.4414 59.0129 96.9771 59.35 99.52 59.3C102.206 59.324 104.877 58.8946 107.42 58.03C109.745 57.2393 111.902 56.0218 113.78 54.44C115.552 52.9182 116.989 51.0454 118 48.94C119.043 46.7551 119.573 44.3609 119.55 41.94C119.576 39.8965 119.237 37.8647 118.55 35.94H118.6Z" fill="white"/>
<path d="M281.16 1.60001H275.5L256.68 58.88H263.68L268.19 44.99H288.64L293.2 58.89H300.13L281.27 1.89001L281.16 1.60001ZM270.26 38.53L278.34 13.7L286.49 38.53H270.26Z" fill="white"/>
<path d="M324.06 25.02L308.91 1.60001H303.29V58.88H309.95V15.3L322.06 34.07L322.16 34.23H325.94L338.04 15.32L338.03 58.88H344.69V1.60001H339.06L324.06 25.02Z" fill="white"/>
<path d="M421.38 33.67C418.61 31.2 414.19 28.67 408.24 26.18C404.41 24.61 401.58 23.33 399.85 22.39C398.478 21.6933 397.279 20.6991 396.34 19.48C395.569 18.2929 395.187 16.8944 395.25 15.48C395.166 14.3816 395.349 13.2791 395.785 12.2671C396.22 11.2552 396.894 10.364 397.75 9.67C399.59 8.27 402.41 7.56 406.13 7.56C410.33 7.56 413.57 8.44 415.75 10.18C416.743 10.9416 417.539 11.9301 418.072 13.0628C418.604 14.1955 418.857 15.4393 418.81 16.69V21.37H425.47V16.49C425.546 14.3123 425.113 12.1469 424.205 10.1661C423.297 8.18521 421.94 6.44366 420.24 5.08C416.91 2.37 412.24 1 406.35 1C400.88 1 396.56 2.23 393.51 4.65C390.3 7.19 388.67 10.87 388.67 15.58C388.576 18.2113 389.292 20.8081 390.72 23.02C392.096 24.9815 393.902 26.6028 396 27.76C398.954 29.3696 401.992 30.8217 405.1 32.11C408.201 33.38 411.208 34.867 414.1 36.56C415.706 37.4909 417.102 38.7438 418.2 40.24C419.175 41.8893 419.54 43.8281 419.233 45.7191C418.927 47.6101 417.966 49.3337 416.52 50.59C414.52 52.18 411.39 52.99 407.34 52.99C403 52.99 399.6 52.11 397.23 50.36C396.195 49.6411 395.357 48.6738 394.792 47.5469C394.228 46.42 393.956 45.1695 394 43.91V38.36H387.49V44.06C387.423 46.2605 387.89 48.4444 388.849 50.4259C389.808 52.4073 391.233 54.1275 393 55.44C396.5 58.12 401.27 59.44 407.17 59.44C413.07 59.44 417.56 58.08 420.84 55.44C422.51 54.1016 423.846 52.3928 424.742 50.4489C425.637 48.505 426.068 46.3792 426 44.24C426.054 42.2468 425.669 40.2662 424.87 38.4392C424.071 36.6122 422.88 34.9838 421.38 33.67Z" fill="white"/>
<path d="M350.69 58.88H385.32V52.37H357.35V33.42H380.12V26.99H357.35V8.04001H385.32V1.60001H350.69V58.88Z" fill="white"/>
<path d="M256.71 28.8H236V35.24H250.07V42.01C250.146 43.4874 249.898 44.9636 249.343 46.3351C248.789 47.7067 247.941 48.9404 246.86 49.95C244.394 52.0441 241.221 53.1173 237.99 52.95C234.25 52.95 231.23 51.95 228.99 49.87C227.899 48.8529 227.042 47.6105 226.479 46.229C225.916 44.8476 225.66 43.3601 225.73 41.87V18.61C225.66 17.1198 225.916 15.6324 226.479 14.2509C227.042 12.8695 227.899 11.6271 228.99 10.61C231.2 8.55999 234.22 7.52999 237.99 7.52999C241.219 7.35711 244.391 8.43107 246.85 10.53C247.937 11.5486 248.788 12.7923 249.344 14.1741C249.9 15.5559 250.148 17.0425 250.07 18.53V21.37H256.73V18.61C256.778 15.4061 255.971 12.2473 254.39 9.45999C252.814 6.75036 250.478 4.56318 247.67 3.16999C244.666 1.68554 241.35 0.941485 238 0.999994C234.62 0.936777 231.274 1.6807 228.24 3.16999C225.436 4.57024 223.093 6.74655 221.49 9.43999C219.876 12.2481 219.053 15.4414 219.11 18.68V41.8C219.053 45.0385 219.876 48.2319 221.49 51.04C223.093 53.7334 225.436 55.9097 228.24 57.31C231.283 58.7389 234.603 59.4796 237.965 59.4796C241.327 59.4796 244.647 58.7389 247.69 57.31C250.492 55.9123 252.824 53.726 254.4 51.02C255.994 48.1837 256.802 44.9731 256.74 41.72L256.71 28.8Z" fill="white"/>
</svg>
